<svg width="147" height="149" viewBox="0 0 147 149" fill="none" xmlns="http://www.w3.org/2000/svg">
    <path
        d="M125.43 21.7109C111.573 7.68927 93.097 0 73.5 0C53.8581 0 35.3822 7.68927 21.5253 21.7109C7.62355 35.6873 0 54.3224 0 74.1336C0 93.9448 7.62355 112.535 21.5253 126.556C35.3822 140.533 53.8581 148.267 73.5 148.267C93.1419 148.267 111.573 140.578 125.475 126.556C139.332 112.58 147 93.9448 147 74.1336C146.955 54.3224 139.332 35.6873 125.43 21.7109Z"
        fill="#04B017" />
    <path
        d="M62.2756 87.6198L47.7638 72.9512C44.9697 70.1268 40.3728 70.1268 37.5786 72.9512C34.7844 75.7756 34.7844 80.4222 37.5786 83.2465L57.183 103.063C59.9772 105.887 64.5741 105.887 67.3683 103.063L108.155 61.8359C110.949 59.0116 110.949 54.365 108.155 51.5406C105.36 48.7163 100.763 48.7163 97.9692 51.5406L62.2756 87.6198Z"
        fill="white" />
</svg>
