<svg width="24" height="24" viewBox="0 0 24 24" fill="none" xmlns="http://www.w3.org/2000/svg">
<path d="M15.0001 20.67C14.8101 20.67 14.6201 20.6 14.4701 20.45L7.95011 13.93C7.44082 13.4168 7.15503 12.7231 7.15503 12C7.15503 11.277 7.44082 10.5832 7.95011 10.07L14.4701 3.55002C14.7601 3.26002 15.2401 3.26002 15.5301 3.55002C15.8201 3.84002 15.8201 4.32002 15.5301 4.61002L9.01011 11.13C8.53011 11.61 8.53011 12.39 9.01011 12.87L15.5301 19.39C15.8201 19.68 15.8201 20.16 15.5301 20.45C15.3801 20.59 15.1901 20.67 15.0001 20.67Z" fill="black" stroke="black"/>
</svg>
