<svg width="24" height="24" viewBox="0 0 24 24" fill="none" xmlns="http://www.w3.org/2000/svg">
<path d="M17 21.25H7C3.35 21.25 1.25 19.15 1.25 15.5V8.5C1.25 4.85 3.35 2.75 7 2.75H17C20.65 2.75 22.75 4.85 22.75 8.5V15.5C22.75 19.15 20.65 21.25 17 21.25ZM7 4.25C4.14 4.25 2.75 5.64 2.75 8.5V15.5C2.75 18.36 4.14 19.75 7 19.75H17C19.86 19.75 21.25 18.36 21.25 15.5V8.5C21.25 5.64 19.86 4.25 17 4.25H7Z" fill="#442D7A"/>
<path d="M11.9991 12.868C11.1591 12.868 10.3091 12.608 9.65907 12.078L6.52907 9.57802C6.38352 9.45164 6.29238 9.27395 6.27466 9.082C6.25693 8.89006 6.31399 8.69868 6.43393 8.54778C6.55388 8.39688 6.72745 8.29812 6.91844 8.27208C7.10944 8.24604 7.30311 8.29474 7.45907 8.40802L10.5891 10.908C11.3491 11.518 12.6391 11.518 13.3991 10.908L16.5291 8.40802C16.8491 8.14802 17.3291 8.19802 17.5791 8.52802C17.8391 8.84802 17.7891 9.32802 17.4591 9.57802L14.3291 12.078C13.6891 12.608 12.8391 12.868 11.9991 12.868Z" fill="#442D7A"/>
</svg>
