<svg width="180" height="180" viewBox="0 0 180 180" fill="none" xmlns="http://www.w3.org/2000/svg">
<g clip-path="url(#clip0_20_11)">
<rect width="180" height="180" rx="10" fill="#442D7A"/>
<path d="M133.575 33.525C132.975 33.525 132.375 33.375 131.85 33.075C117.45 25.65 105 22.5 90.0753 22.5C75.2253 22.5 61.1253 26.025 48.3003 33.075C46.5003 34.05 44.2503 33.375 43.2003 31.575C42.2253 29.775 42.9003 27.45 44.7003 26.475C58.6503 18.9 73.9503 15 90.0753 15C106.05 15 120 18.525 135.3 26.4C137.175 27.375 137.85 29.625 136.875 31.425C136.2 32.775 134.925 33.525 133.575 33.525ZM26.2503 72.9C25.5003 72.9 24.7503 72.675 24.0753 72.225C22.3503 71.025 21.9753 68.7 23.1753 66.975C30.6003 56.475 40.0503 48.225 51.3003 42.45C74.8503 30.3 105 30.225 128.625 42.375C139.875 48.15 149.325 56.325 156.75 66.75C157.95 68.4 157.575 70.8 155.85 72C154.125 73.2 151.8 72.825 150.6 71.1C143.85 61.65 135.3 54.225 125.175 49.05C103.65 38.025 76.1253 38.025 54.6753 49.125C44.4753 54.375 35.9253 61.875 29.1753 71.325C28.5753 72.375 27.4503 72.9 26.2503 72.9ZM73.1253 163.425C72.1503 163.425 71.1753 163.05 70.5003 162.3C63.9753 155.775 60.4503 151.575 55.4253 142.5C50.2503 133.275 47.5503 122.025 47.5503 109.95C47.5503 87.675 66.6003 69.525 90.0003 69.525C113.4 69.525 132.45 87.675 132.45 109.95C132.45 112.05 130.8 113.7 128.7 113.7C126.6 113.7 124.95 112.05 124.95 109.95C124.95 91.8 109.275 77.025 90.0003 77.025C70.7253 77.025 55.0503 91.8 55.0503 109.95C55.0503 120.75 57.4503 130.725 62.0253 138.825C66.8253 147.45 70.1253 151.125 75.9003 156.975C77.3253 158.475 77.3253 160.8 75.9003 162.3C75.0753 163.05 74.1003 163.425 73.1253 163.425ZM126.9 149.55C117.975 149.55 110.1 147.3 103.65 142.875C92.4753 135.3 85.8003 123 85.8003 109.95C85.8003 107.85 87.4503 106.2 89.5503 106.2C91.6503 106.2 93.3003 107.85 93.3003 109.95C93.3003 120.525 98.7003 130.5 107.85 136.65C113.175 140.25 119.4 141.975 126.9 141.975C128.7 141.975 131.7 141.75 134.7 141.225C136.725 140.85 138.675 142.2 139.05 144.3C139.425 146.325 138.075 148.275 135.975 148.65C131.7 149.475 127.95 149.55 126.9 149.55ZM111.825 165C111.525 165 111.15 164.925 110.85 164.85C98.9253 161.55 91.1253 157.125 82.9503 149.1C72.4503 138.675 66.6753 124.8 66.6753 109.95C66.6753 97.8 77.0253 87.9 89.7753 87.9C102.525 87.9 112.875 97.8 112.875 109.95C112.875 117.975 119.85 124.5 128.475 124.5C137.1 124.5 144.075 117.975 144.075 109.95C144.075 81.675 119.7 58.725 89.7003 58.725C68.4003 58.725 48.9003 70.575 40.1253 88.95C37.2003 95.025 35.7003 102.15 35.7003 109.95C35.7003 115.8 36.2253 125.025 40.7253 137.025C41.4753 138.975 40.5003 141.15 38.5503 141.825C36.6003 142.575 34.4253 141.525 33.7503 139.65C30.0753 129.825 28.2753 120.075 28.2753 109.95C28.2753 100.95 30.0003 92.775 33.3753 85.65C43.3503 64.725 65.4753 51.15 89.7003 51.15C123.825 51.15 151.575 77.475 151.575 109.875C151.575 122.025 141.225 131.925 128.475 131.925C115.725 131.925 105.375 122.025 105.375 109.875C105.375 101.85 98.4003 95.325 89.7753 95.325C81.1503 95.325 74.1753 101.85 74.1753 109.875C74.1753 122.7 79.1253 134.7 88.2003 143.7C95.3253 150.75 102.15 154.65 112.725 157.575C114.75 158.1 115.875 160.2 115.35 162.15C114.975 163.875 113.4 165 111.825 165Z" fill="white"/>
</g>
<defs>
<clipPath id="clip0_20_11">
<rect width="180" height="180" rx="10" fill="white"/>
</clipPath>
</defs>
</svg>
