<svg width="24" height="24" viewBox="0 0 24 24" fill="none" xmlns="http://www.w3.org/2000/svg">
<path d="M6.17989 22.752C6.07989 22.752 5.96989 22.742 5.87989 22.732L3.70989 22.432C2.66989 22.292 1.72989 21.362 1.56989 20.302L1.26989 18.112C1.16989 17.412 1.46989 16.502 1.96989 15.992L6.35989 11.602C5.64989 8.762 6.46989 5.762 8.55989 3.692C11.7999 0.461998 17.0699 0.451998 20.3199 3.692C21.0935 4.4628 21.7066 5.37936 22.1237 6.38865C22.5408 7.39794 22.7537 8.47992 22.7499 9.572C22.7499 11.792 21.8899 13.882 20.3199 15.452C18.2199 17.532 15.2299 18.352 12.4099 17.632L8.00989 22.022C7.58989 22.462 6.83989 22.752 6.17989 22.752ZM14.4299 2.762C12.6799 2.762 10.9399 3.422 9.60989 4.752C8.72712 5.62909 8.10185 6.73152 7.8021 7.9393C7.50236 9.14708 7.53965 10.4139 7.90989 11.602C7.98989 11.872 7.91989 12.152 7.71989 12.352L3.01989 17.052C2.84989 17.222 2.70989 17.662 2.73989 17.892L3.03989 20.082C3.09989 20.462 3.50989 20.892 3.88989 20.942L6.06989 21.242C6.30989 21.282 6.74989 21.142 6.91989 20.972L11.6399 16.262C11.8399 16.062 12.1299 16.002 12.3899 16.082C14.7999 16.842 17.4299 16.192 19.2299 14.392C20.5099 13.112 21.2199 11.392 21.2199 9.572C21.2199 7.742 20.5099 6.032 19.2299 4.752C18.6017 4.1186 17.8538 3.61647 17.0298 3.27483C16.2057 2.93319 15.322 2.75887 14.4299 2.762Z" fill="#442D7A"/>
<path d="M9.18808 20.54C8.99808 20.54 8.80808 20.47 8.65808 20.32L6.35808 18.02C6.2186 17.8789 6.14038 17.6884 6.14038 17.49C6.14038 17.2916 6.2186 17.1011 6.35808 16.96C6.64808 16.67 7.12808 16.67 7.41808 16.96L9.71808 19.26C10.0081 19.55 10.0081 20.03 9.71808 20.32C9.56808 20.47 9.37808 20.54 9.18808 20.54ZM14.5001 11.75C13.2601 11.75 12.2501 10.74 12.2501 9.5C12.2501 8.26 13.2601 7.25 14.5001 7.25C15.7401 7.25 16.7501 8.26 16.7501 9.5C16.7501 10.74 15.7401 11.75 14.5001 11.75ZM14.5001 8.75C14.0901 8.75 13.7501 9.09 13.7501 9.5C13.7501 9.91 14.0901 10.25 14.5001 10.25C14.9101 10.25 15.2501 9.91 15.2501 9.5C15.2501 9.09 14.9101 8.75 14.5001 8.75Z" fill="#442D7A"/>
</svg>
