<svg width="24" height="24" viewBox="0 0 24 24" fill="none" xmlns="http://www.w3.org/2000/svg">
<path d="M18 10.75C17.59 10.75 17.25 10.41 17.25 10V8C17.25 4.85 16.36 2.75 12 2.75C7.64 2.75 6.75 4.85 6.75 8V10C6.75 10.41 6.41 10.75 6 10.75C5.59 10.75 5.25 10.41 5.25 10V8C5.25 5.1 5.95 1.25 12 1.25C18.05 1.25 18.75 5.1 18.75 8V10C18.75 10.41 18.41 10.75 18 10.75Z" fill="#442D7A"/>
<path d="M17 22.75H7C2.59 22.75 1.25 21.41 1.25 17V15C1.25 10.59 2.59 9.25 7 9.25H17C21.41 9.25 22.75 10.59 22.75 15V17C22.75 21.41 21.41 22.75 17 22.75ZM7 10.75C3.42 10.75 2.75 11.43 2.75 15V17C2.75 20.57 3.42 21.25 7 21.25H17C20.58 21.25 21.25 20.57 21.25 17V15C21.25 11.43 20.58 10.75 17 10.75H7Z" fill="#442D7A"/>
<path d="M8 16.999C7.87 16.999 7.74 16.969 7.62 16.919C7.49 16.869 7.39 16.799 7.29 16.709C7.11 16.519 7 16.269 7 15.999C7 15.869 7.03 15.739 7.08 15.619C7.13 15.489 7.2 15.389 7.29 15.289C7.39 15.199 7.49 15.129 7.62 15.079C7.98 14.919 8.43 15.009 8.71 15.289C8.8 15.389 8.87 15.499 8.92 15.619C8.97 15.739 9 15.869 9 15.999C9 16.259 8.89 16.519 8.71 16.709C8.52 16.889 8.26 16.999 8 16.999ZM12 17C11.74 17 11.48 16.89 11.29 16.71C11.11 16.52 11 16.27 11 16C11 15.87 11.02 15.74 11.08 15.62C11.13 15.5 11.2 15.39 11.29 15.29C11.52 15.06 11.87 14.95 12.19 15.02C12.26 15.03 12.32 15.05 12.38 15.08C12.44 15.1 12.5 15.13 12.56 15.17C12.61 15.2 12.66 15.25 12.71 15.29C12.8 15.39 12.87 15.5 12.92 15.62C12.97 15.74 13 15.87 13 16C13 16.27 12.89 16.52 12.71 16.71L12.56 16.83C12.5 16.87 12.44 16.9 12.38 16.92C12.32 16.95 12.26 16.97 12.19 16.98C12.13 16.99 12.06 17 12 17ZM16 17C15.73 17 15.48 16.89 15.29 16.71C15.2 16.61 15.13 16.5 15.08 16.38C15.0286 16.2598 15.0015 16.1307 15 16C15 15.74 15.11 15.48 15.29 15.29L15.44 15.17C15.5 15.13 15.56 15.1 15.62 15.08C15.68 15.05 15.74 15.03 15.8 15.02C16.13 14.95 16.47 15.06 16.71 15.29C16.89 15.48 17 15.73 17 16C17 16.13 16.97 16.26 16.92 16.38C16.87 16.51 16.8 16.61 16.71 16.71C16.52 16.89 16.26 17 16 17Z" fill="#442D7A"/>
</svg>
