<svg width="130" height="120" viewBox="0 0 130 120" fill="none" xmlns="http://www.w3.org/2000/svg">
<path d="M0 6C0 2.68629 2.68629 0 6 0H124C127.314 0 130 2.68629 130 6V114C130 117.314 127.314 120 124 120H6C2.68629 120 0 117.314 0 114V6Z" fill="#BE2626"/>
<g filter="url(#filter0_d_24_108)">
<path d="M57.6579 35.1187C58.3921 27.9338 62.7737 25 72.3658 25H72.6737C83.2605 25 87.5 28.5725 87.5 37.4937V50.5063C87.5 59.4275 83.2605 63 72.6737 63H72.3658C62.8447 63 58.4632 60.1061 57.6816 53.041M72.1053 43.98H45.1526M50.4342 37.2941L42.5 43.98L50.4342 50.666" stroke="white" stroke-width="3" stroke-linecap="round" stroke-linejoin="round"/>
<g filter="url(#filter1_d_24_108)">
<path d="M31.3827 81.288C31.3827 81.8853 31.2387 82.4453 30.9507 82.968C30.6734 83.4907 30.2307 83.912 29.6227 84.232C29.0254 84.552 28.268 84.712 27.3507 84.712H25.4787V89H23.2387V77.832H27.3507C28.2147 77.832 28.9507 77.9813 29.5587 78.28C30.1667 78.5787 30.62 78.9893 30.9187 79.512C31.228 80.0347 31.3827 80.6267 31.3827 81.288ZM27.2547 82.904C27.8734 82.904 28.332 82.7653 28.6307 82.488C28.9294 82.2 29.0787 81.8 29.0787 81.288C29.0787 80.2 28.4707 79.656 27.2547 79.656H25.4787V82.904H27.2547ZM41.8211 80.136V89H39.5651V87.88C39.2771 88.264 38.8984 88.568 38.4291 88.792C37.9704 89.0053 37.4691 89.112 36.9251 89.112C36.2317 89.112 35.6184 88.968 35.0851 88.68C34.5517 88.3813 34.1304 87.9493 33.8211 87.384C33.5224 86.808 33.3731 86.1253 33.3731 85.336V80.136H35.6131V85.016C35.6131 85.72 35.7891 86.264 36.1411 86.648C36.4931 87.0213 36.9731 87.208 37.5811 87.208C38.1997 87.208 38.6851 87.0213 39.0371 86.648C39.3891 86.264 39.5651 85.72 39.5651 85.016V80.136H41.8211ZM49.4232 80.008C50.4792 80.008 51.3325 80.344 51.9832 81.016C52.6339 81.6773 52.9592 82.6053 52.9592 83.8V89H50.7192V84.104C50.7192 83.4 50.5432 82.8613 50.1912 82.488C49.8392 82.104 49.3592 81.912 48.7512 81.912C48.1325 81.912 47.6419 82.104 47.2792 82.488C46.9272 82.8613 46.7512 83.4 46.7512 84.104V89H44.5112V80.136H46.7512V81.24C47.0499 80.856 47.4285 80.5573 47.8872 80.344C48.3565 80.12 48.8685 80.008 49.4232 80.008ZM54.9933 84.568C54.9933 83.6507 55.18 82.8507 55.5533 82.168C55.9266 81.4747 56.444 80.9413 57.1053 80.568C57.7666 80.184 58.524 79.992 59.3773 79.992C60.476 79.992 61.3826 80.2693 62.0973 80.824C62.8226 81.368 63.308 82.136 63.5533 83.128H61.1373C61.0093 82.744 60.7906 82.4453 60.4813 82.232C60.1826 82.008 59.8093 81.896 59.3613 81.896C58.7213 81.896 58.2146 82.1307 57.8413 82.6C57.468 83.0587 57.2813 83.7147 57.2813 84.568C57.2813 85.4107 57.468 86.0667 57.8413 86.536C58.2146 86.9947 58.7213 87.224 59.3613 87.224C60.268 87.224 60.86 86.8187 61.1373 86.008H63.5533C63.308 86.968 62.8226 87.7307 62.0973 88.296C61.372 88.8613 60.4653 89.144 59.3773 89.144C58.524 89.144 57.7666 88.9573 57.1053 88.584C56.444 88.2 55.9266 87.6667 55.5533 86.984C55.18 86.2907 54.9933 85.4853 54.9933 84.568ZM70.6663 80.008C71.3383 80.008 71.9356 80.1573 72.4583 80.456C72.981 80.744 73.3863 81.176 73.6743 81.752C73.973 82.3173 74.1223 83 74.1223 83.8V89H71.8823V84.104C71.8823 83.4 71.7063 82.8613 71.3543 82.488C71.0023 82.104 70.5223 81.912 69.9143 81.912C69.2956 81.912 68.805 82.104 68.4423 82.488C68.0903 82.8613 67.9143 83.4 67.9143 84.104V89H65.6743V77.16H67.9143V81.24C68.2023 80.856 68.5863 80.5573 69.0663 80.344C69.5463 80.12 70.0796 80.008 70.6663 80.008ZM84.9609 89.144C84.1076 89.144 83.3396 88.9573 82.6569 88.584C81.9743 88.2 81.4356 87.6613 81.0409 86.968C80.6569 86.2747 80.4649 85.4747 80.4649 84.568C80.4649 83.6613 80.6623 82.8613 81.0569 82.168C81.4623 81.4747 82.0116 80.9413 82.7049 80.568C83.3983 80.184 84.1716 79.992 85.0249 79.992C85.8783 79.992 86.6516 80.184 87.3449 80.568C88.0383 80.9413 88.5823 81.4747 88.9769 82.168C89.3823 82.8613 89.5849 83.6613 89.5849 84.568C89.5849 85.4747 89.3769 86.2747 88.9609 86.968C88.5556 87.6613 88.0009 88.2 87.2969 88.584C86.6036 88.9573 85.8249 89.144 84.9609 89.144ZM84.9609 87.192C85.3663 87.192 85.7449 87.096 86.0969 86.904C86.4596 86.7013 86.7476 86.4027 86.9609 86.008C87.1743 85.6133 87.2809 85.1333 87.2809 84.568C87.2809 83.7253 87.0569 83.08 86.6089 82.632C86.1716 82.1733 85.6329 81.944 84.9929 81.944C84.3529 81.944 83.8143 82.1733 83.3769 82.632C82.9503 83.08 82.7369 83.7253 82.7369 84.568C82.7369 85.4107 82.9449 86.0613 83.3609 86.52C83.7876 86.968 84.3209 87.192 84.9609 87.192ZM100.076 80.136V89H97.8201V87.88C97.5321 88.264 97.1534 88.568 96.6841 88.792C96.2254 89.0053 95.7241 89.112 95.1801 89.112C94.4867 89.112 93.8734 88.968 93.3401 88.68C92.8067 88.3813 92.3854 87.9493 92.0761 87.384C91.7774 86.808 91.6281 86.1253 91.6281 85.336V80.136H93.8681V85.016C93.8681 85.72 94.0441 86.264 94.3961 86.648C94.7481 87.0213 95.2281 87.208 95.8361 87.208C96.4547 87.208 96.9401 87.0213 97.2921 86.648C97.6441 86.264 97.8201 85.72 97.8201 85.016V80.136H100.076ZM105.374 81.976V86.264C105.374 86.5627 105.444 86.7813 105.582 86.92C105.732 87.048 105.977 87.112 106.318 87.112H107.358V89H105.95C104.062 89 103.118 88.0827 103.118 86.248V81.976H102.062V80.136H103.118V77.944H105.374V80.136H107.358V81.976H105.374Z" fill="white"/>
</g>
</g>
<defs>
<filter id="filter0_d_24_108" x="18" y="23.5" width="94" height="79.5" filterUnits="userSpaceOnUse" color-interpolation-filters="sRGB">
<feFlood flood-opacity="0" result="BackgroundImageFix"/>
<feColorMatrix in="SourceAlpha" type="matrix" values="0 0 0 0 0 0 0 0 0 0 0 0 0 0 0 0 0 0 127 0" result="hardAlpha"/>
<feOffset dy="4"/>
<feGaussianBlur stdDeviation="2"/>
<feComposite in2="hardAlpha" operator="out"/>
<feColorMatrix type="matrix" values="0 0 0 0 0 0 0 0 0 0 0 0 0 0 0 0 0 0 0.25 0"/>
<feBlend mode="normal" in2="BackgroundImageFix" result="effect1_dropShadow_24_108"/>
<feBlend mode="normal" in="SourceGraphic" in2="effect1_dropShadow_24_108" result="shape"/>
</filter>
<filter id="filter1_d_24_108" x="19.2386" y="77.16" width="92.1195" height="19.984" filterUnits="userSpaceOnUse" color-interpolation-filters="sRGB">
<feFlood flood-opacity="0" result="BackgroundImageFix"/>
<feColorMatrix in="SourceAlpha" type="matrix" values="0 0 0 0 0 0 0 0 0 0 0 0 0 0 0 0 0 0 127 0" result="hardAlpha"/>
<feOffset dy="4"/>
<feGaussianBlur stdDeviation="2"/>
<feComposite in2="hardAlpha" operator="out"/>
<feColorMatrix type="matrix" values="0 0 0 0 0 0 0 0 0 0 0 0 0 0 0 0 0 0 0.25 0"/>
<feBlend mode="normal" in2="BackgroundImageFix" result="effect1_dropShadow_24_108"/>
<feBlend mode="normal" in="SourceGraphic" in2="effect1_dropShadow_24_108" result="shape"/>
</filter>
</defs>
</svg>
