<svg width="130" height="120" viewBox="0 0 130 120" fill="none" xmlns="http://www.w3.org/2000/svg">
<path d="M0 6C0 2.68629 2.68629 0 6 0H124C127.314 0 130 2.68629 130 6V114C130 117.314 127.314 120 124 120H6C2.68629 120 0 117.314 0 114V6Z" fill="#804993"/>
<g filter="url(#filter0_d_24_105)">
<path d="M58.9438 34.9287C59.6025 27.8787 63.5338 25 72.14 25H72.4163C81.915 25 85.7188 28.5054 85.7188 37.2592V50.0275C85.7188 58.7812 81.915 62.2867 72.4163 62.2867H72.14C63.5975 62.2867 59.6663 59.4471 58.965 52.5146M44.2812 43.6237H71.6513" stroke="white" stroke-width="3" stroke-linecap="round" stroke-linejoin="round"/>
<path d="M66.9126 37.0634L74.0313 43.6238L66.9126 50.1842" stroke="white" stroke-width="3" stroke-linecap="round" stroke-linejoin="round"/>
<g filter="url(#filter1_d_24_105)">
<path d="M37.5992 80.5746C37.5992 81.172 37.4552 81.732 37.1672 82.2546C36.8899 82.7773 36.4473 83.1986 35.8393 83.5186C35.2419 83.8386 34.4846 83.9986 33.5672 83.9986H31.6952V88.2866H29.4552V77.1186H33.5672C34.4312 77.1186 35.1672 77.268 35.7752 77.5666C36.3833 77.8653 36.8366 78.276 37.1353 78.7986C37.4446 79.3213 37.5992 79.9133 37.5992 80.5746ZM33.4713 82.1906C34.0899 82.1906 34.5486 82.052 34.8472 81.7746C35.1459 81.4866 35.2952 81.0866 35.2952 80.5746C35.2952 79.4866 34.6872 78.9426 33.4713 78.9426H31.6952V82.1906H33.4713ZM48.0376 79.4226V88.2866H45.7816V87.1666C45.4936 87.5506 45.115 87.8546 44.6456 88.0786C44.187 88.292 43.6856 88.3986 43.1416 88.3986C42.4483 88.3986 41.835 88.2546 41.3016 87.9666C40.7683 87.668 40.347 87.236 40.0376 86.6706C39.739 86.0946 39.5896 85.412 39.5896 84.6226V79.4226H41.8296V84.3026C41.8296 85.0066 42.0056 85.5506 42.3576 85.9346C42.7096 86.308 43.1896 86.4946 43.7976 86.4946C44.4163 86.4946 44.9016 86.308 45.2536 85.9346C45.6056 85.5506 45.7816 85.0066 45.7816 84.3026V79.4226H48.0376ZM55.6397 79.2946C56.6957 79.2946 57.5491 79.6306 58.1997 80.3026C58.8504 80.964 59.1757 81.892 59.1757 83.0866V88.2866H56.9357V83.3906C56.9357 82.6866 56.7597 82.148 56.4077 81.7746C56.0557 81.3906 55.5757 81.1986 54.9677 81.1986C54.3491 81.1986 53.8584 81.3906 53.4957 81.7746C53.1437 82.148 52.9677 82.6866 52.9677 83.3906V88.2866H50.7277V79.4226H52.9677V80.5266C53.2664 80.1426 53.6451 79.844 54.1037 79.6306C54.5731 79.4066 55.0851 79.2946 55.6397 79.2946ZM61.2099 83.8546C61.2099 82.9373 61.3965 82.1373 61.7699 81.4546C62.1432 80.7613 62.6605 80.228 63.3219 79.8546C63.9832 79.4706 64.7405 79.2786 65.5939 79.2786C66.6925 79.2786 67.5992 79.556 68.3139 80.1106C69.0392 80.6546 69.5245 81.4226 69.7699 82.4146H67.3539C67.2259 82.0306 67.0072 81.732 66.6979 81.5186C66.3992 81.2946 66.0259 81.1826 65.5779 81.1826C64.9379 81.1826 64.4312 81.4173 64.0579 81.8866C63.6845 82.3453 63.4979 83.0013 63.4979 83.8546C63.4979 84.6973 63.6845 85.3533 64.0579 85.8226C64.4312 86.2813 64.9379 86.5106 65.5779 86.5106C66.4845 86.5106 67.0765 86.1053 67.3539 85.2946H69.7699C69.5245 86.2546 69.0392 87.0173 68.3139 87.5826C67.5885 88.148 66.6819 88.4306 65.5939 88.4306C64.7405 88.4306 63.9832 88.244 63.3219 87.8706C62.6605 87.4866 62.1432 86.9533 61.7699 86.2706C61.3965 85.5773 61.2099 84.772 61.2099 83.8546ZM76.8829 79.2946C77.5549 79.2946 78.1522 79.444 78.6749 79.7426C79.1975 80.0306 79.6029 80.4626 79.8909 81.0386C80.1895 81.604 80.3389 82.2866 80.3389 83.0866V88.2866H78.0989V83.3906C78.0989 82.6866 77.9229 82.148 77.5709 81.7746C77.2189 81.3906 76.7389 81.1986 76.1309 81.1986C75.5122 81.1986 75.0215 81.3906 74.6589 81.7746C74.3069 82.148 74.1309 82.6866 74.1309 83.3906V88.2866H71.8909V76.4466H74.1309V80.5266C74.4189 80.1426 74.8029 79.844 75.2829 79.6306C75.7629 79.4066 76.2962 79.2946 76.8829 79.2946ZM88.3775 78.3666C87.9828 78.3666 87.6522 78.244 87.3855 77.9986C87.1295 77.7426 87.0015 77.428 87.0015 77.0546C87.0015 76.6813 87.1295 76.372 87.3855 76.1266C87.6522 75.8706 87.9828 75.7426 88.3775 75.7426C88.7722 75.7426 89.0975 75.8706 89.3535 76.1266C89.6202 76.372 89.7535 76.6813 89.7535 77.0546C89.7535 77.428 89.6202 77.7426 89.3535 77.9986C89.0975 78.244 88.7722 78.3666 88.3775 78.3666ZM89.4815 79.4226V88.2866H87.2415V79.4226H89.4815ZM97.0866 79.2946C98.1426 79.2946 98.996 79.6306 99.6466 80.3026C100.297 80.964 100.623 81.892 100.623 83.0866V88.2866H98.3826V83.3906C98.3826 82.6866 98.2066 82.148 97.8546 81.7746C97.5026 81.3906 97.0226 81.1986 96.4146 81.1986C95.796 81.1986 95.3053 81.3906 94.9426 81.7746C94.5906 82.148 94.4146 82.6866 94.4146 83.3906V88.2866H92.1746V79.4226H94.4146V80.5266C94.7133 80.1426 95.092 79.844 95.5506 79.6306C96.02 79.4066 96.532 79.2946 97.0866 79.2946Z" fill="white"/>
</g>
</g>
<defs>
<filter id="filter0_d_24_105" x="24" y="23.5" width="82" height="78.7866" filterUnits="userSpaceOnUse" color-interpolation-filters="sRGB">
<feFlood flood-opacity="0" result="BackgroundImageFix"/>
<feColorMatrix in="SourceAlpha" type="matrix" values="0 0 0 0 0 0 0 0 0 0 0 0 0 0 0 0 0 0 127 0" result="hardAlpha"/>
<feOffset dy="4"/>
<feGaussianBlur stdDeviation="2"/>
<feComposite in2="hardAlpha" operator="out"/>
<feColorMatrix type="matrix" values="0 0 0 0 0 0 0 0 0 0 0 0 0 0 0 0 0 0 0.25 0"/>
<feBlend mode="normal" in2="BackgroundImageFix" result="effect1_dropShadow_24_105"/>
<feBlend mode="normal" in="SourceGraphic" in2="effect1_dropShadow_24_105" result="shape"/>
</filter>
<filter id="filter1_d_24_105" x="25.4553" y="75.7427" width="79.1674" height="20.688" filterUnits="userSpaceOnUse" color-interpolation-filters="sRGB">
<feFlood flood-opacity="0" result="BackgroundImageFix"/>
<feColorMatrix in="SourceAlpha" type="matrix" values="0 0 0 0 0 0 0 0 0 0 0 0 0 0 0 0 0 0 127 0" result="hardAlpha"/>
<feOffset dy="4"/>
<feGaussianBlur stdDeviation="2"/>
<feComposite in2="hardAlpha" operator="out"/>
<feColorMatrix type="matrix" values="0 0 0 0 0 0 0 0 0 0 0 0 0 0 0 0 0 0 0.25 0"/>
<feBlend mode="normal" in2="BackgroundImageFix" result="effect1_dropShadow_24_105"/>
<feBlend mode="normal" in="SourceGraphic" in2="effect1_dropShadow_24_105" result="shape"/>
</filter>
</defs>
</svg>
