<svg width="9" height="10" viewBox="0 0 9 10" fill="none" xmlns="http://www.w3.org/2000/svg">
<path d="M0.886527 1.11347C1.31582 0.68418 2.01184 0.684179 2.44114 1.11347L4.77305 3.44539L7.10497 1.11347C7.53426 0.68418 8.23029 0.684179 8.65958 1.11347C9.08887 1.54277 9.08887 2.23879 8.65958 2.66808L6.32766 5L8.65958 7.33192C9.08887 7.76121 9.08887 8.45723 8.65958 8.88653C8.23029 9.31582 7.53426 9.31582 7.10497 8.88653L4.77305 6.55461L2.44114 8.88653C2.01184 9.31582 1.31582 9.31582 0.886527 8.88653C0.457233 8.45723 0.457233 7.76121 0.886526 7.33192L3.21844 5L0.886526 2.66808C0.457233 2.23879 0.457232 1.54277 0.886527 1.11347Z" fill="#5B5B5B"/>
<path d="M0.886527 1.11347C1.31582 0.68418 2.01184 0.684179 2.44114 1.11347L4.77305 3.44539L7.10497 1.11347C7.53426 0.68418 8.23029 0.684179 8.65958 1.11347C9.08887 1.54277 9.08887 2.23879 8.65958 2.66808L6.32766 5L8.65958 7.33192C9.08887 7.76121 9.08887 8.45723 8.65958 8.88653C8.23029 9.31582 7.53426 9.31582 7.10497 8.88653L4.77305 6.55461L2.44114 8.88653C2.01184 9.31582 1.31582 9.31582 0.886527 8.88653C0.457233 8.45723 0.457233 7.76121 0.886526 7.33192L3.21844 5L0.886526 2.66808C0.457233 2.23879 0.457232 1.54277 0.886527 1.11347Z" stroke="#B5B5B5"/>
</svg>
