<svg width="24" height="24" viewBox="0 0 24 24" fill="none" xmlns="http://www.w3.org/2000/svg">
<path d="M11.9979 22.761C10.9079 22.761 9.82795 22.441 8.97795 21.811L4.67795 18.601C3.53795 17.751 2.64795 15.971 2.64795 14.561V7.12104C2.64795 5.58104 3.77795 3.94104 5.22795 3.40104L10.2179 1.53104C11.2079 1.16104 12.7679 1.16104 13.7579 1.53104L18.7479 3.40104C20.1979 3.94104 21.3279 5.58104 21.3279 7.12104V14.551C21.3279 15.971 20.4379 17.741 19.2979 18.591L14.9979 21.801C14.1679 22.441 13.0879 22.761 11.9979 22.761ZM10.7479 2.94104L5.75795 4.81104C4.90795 5.13104 4.15795 6.21104 4.15795 7.13104V14.561C4.15795 15.511 4.82795 16.841 5.57795 17.401L9.87795 20.611C11.0279 21.471 12.9679 21.471 14.1279 20.611L18.4279 17.401C19.1879 16.831 19.8479 15.511 19.8479 14.561V7.12104C19.8479 6.21104 19.0979 5.13104 18.2479 4.80104L13.2579 2.93104C12.5779 2.69104 11.4179 2.69104 10.7479 2.94104Z" fill="#442D7A"/>
<path d="M10.658 14.231C10.468 14.231 10.278 14.161 10.128 14.011L8.51799 12.401C8.37851 12.2598 8.30029 12.0694 8.30029 11.871C8.30029 11.6725 8.37851 11.4821 8.51799 11.341C8.80799 11.051 9.28799 11.051 9.57799 11.341L10.658 12.421L14.428 8.65097C14.718 8.36097 15.198 8.36097 15.488 8.65097C15.778 8.94097 15.778 9.42097 15.488 9.71097L11.188 14.011C11.038 14.161 10.848 14.231 10.658 14.231Z" fill="#442D7A"/>
</svg>
